<svg width="275" height="240" viewBox="0 0 275 240" fill="none" xmlns="http://www.w3.org/2000/svg">
<path d="M212.998 183.34H46.633C43.0369 183.336 39.5891 181.908 37.0462 179.368C34.5034 176.828 33.0733 173.384 33.0698 169.792V61.7405C33.0733 58.1485 34.5034 54.7047 37.0462 52.1647C39.5891 49.6248 43.0369 48.1964 46.633 48.1929H212.998C216.595 48.1952 220.044 49.6231 222.588 52.1632C225.132 54.7032 226.562 58.1478 226.566 61.7405V169.792C226.562 173.385 225.132 176.829 222.588 179.369C220.044 181.91 216.595 183.337 212.998 183.34V183.34ZM46.633 52.5872C44.2048 52.5918 41.8776 53.558 40.1614 55.2738C38.4453 56.9896 37.4803 59.3151 37.478 61.7405V169.792C37.4803 172.218 38.4453 174.543 40.1614 176.259C41.8776 177.975 44.2048 178.941 46.633 178.945H212.998C215.429 178.944 217.759 177.98 219.478 176.264C221.197 174.547 222.164 172.22 222.166 169.792V61.7405C222.164 59.3144 221.199 56.9882 219.481 55.2723C217.764 53.5563 215.436 52.5907 213.007 52.5872H46.633Z" fill="#2F2F2F"/>
<path d="M83.759 183.34C83.1756 183.34 82.6161 183.108 82.2036 182.696C81.7911 182.284 81.5593 181.725 81.5593 181.143V53.1453C81.5593 52.5626 81.7911 52.0037 82.2036 51.5916C82.6161 51.1796 83.1756 50.9481 83.759 50.9481C84.3424 50.9481 84.9019 51.1796 85.3144 51.5916C85.7269 52.0037 85.9587 52.5626 85.9587 53.1453V181.143C85.9587 181.431 85.9018 181.717 85.7912 181.983C85.6807 182.25 85.5187 182.492 85.3144 182.696C85.1101 182.9 84.8676 183.062 84.6008 183.173C84.3339 183.283 84.0479 183.34 83.759 183.34Z" fill="#2F2F2F"/>
<path d="M101.853 118.115C101.27 118.115 100.711 117.884 100.298 117.472C99.8856 117.06 99.6538 116.501 99.6538 115.918V108.887C99.6538 108.304 99.8856 107.745 100.298 107.333C100.711 106.921 101.27 106.69 101.853 106.69C102.437 106.69 102.996 106.921 103.409 107.333C103.821 107.745 104.053 108.304 104.053 108.887V115.918C104.053 116.501 103.821 117.06 103.409 117.472C102.996 117.884 102.437 118.115 101.853 118.115V118.115Z" fill="#232323"/>
<path d="M114.779 118.115C114.195 118.115 113.636 117.884 113.223 117.472C112.811 117.06 112.579 116.501 112.579 115.918V94.8736C112.579 94.2909 112.811 93.732 113.223 93.32C113.636 92.9079 114.195 92.6765 114.779 92.6765C115.362 92.6765 115.921 92.9079 116.334 93.32C116.746 93.732 116.978 94.2909 116.978 94.8736V115.918C116.978 116.501 116.746 117.06 116.334 117.472C115.921 117.884 115.362 118.115 114.779 118.115Z" fill="#232323"/>
<path d="M127.708 118.115C127.125 118.115 126.565 117.884 126.153 117.472C125.74 117.06 125.509 116.501 125.509 115.918V98.3803C125.509 97.7975 125.74 97.2387 126.153 96.8266C126.565 96.4146 127.125 96.1831 127.708 96.1831C128.292 96.1831 128.851 96.4146 129.264 96.8266C129.676 97.2387 129.908 97.7975 129.908 98.3803V115.918C129.908 116.501 129.676 117.06 129.264 117.472C128.851 117.884 128.292 118.115 127.708 118.115V118.115Z" fill="#9B9B9B"/>
<path d="M140.638 118.115C140.055 118.115 139.495 117.884 139.083 117.472C138.67 117.06 138.438 116.501 138.438 115.918V87.8867C138.438 87.3039 138.67 86.7451 139.083 86.333C139.495 85.921 140.055 85.6895 140.638 85.6895C141.221 85.6895 141.781 85.921 142.193 86.333C142.606 86.7451 142.838 87.3039 142.838 87.8867V115.936C142.833 116.515 142.599 117.07 142.187 117.478C141.775 117.886 141.218 118.115 140.638 118.115V118.115Z" fill="#9B9B9B"/>
<path d="M153.568 118.115C152.984 118.115 152.425 117.884 152.012 117.472C151.6 117.059 151.368 116.501 151.368 115.918V77.3403C151.368 76.7576 151.6 76.1987 152.012 75.7867C152.425 75.3746 152.984 75.1431 153.568 75.1431C154.151 75.1431 154.71 75.3746 155.123 75.7867C155.535 76.1987 155.767 76.7576 155.767 77.3403V115.905C155.769 116.194 155.713 116.481 155.604 116.75C155.494 117.018 155.332 117.261 155.128 117.467C154.923 117.672 154.68 117.835 154.412 117.947C154.145 118.058 153.858 118.115 153.568 118.115V118.115Z" fill="#9B9B9B"/>
<path d="M166.493 118.115C165.909 118.115 165.35 117.884 164.937 117.472C164.525 117.06 164.293 116.501 164.293 115.918V108.887C164.293 108.304 164.525 107.745 164.937 107.333C165.35 106.921 165.909 106.69 166.493 106.69C167.076 106.69 167.636 106.921 168.048 107.333C168.461 107.745 168.692 108.304 168.692 108.887V115.918C168.692 116.501 168.461 117.06 168.048 117.472C167.636 117.884 167.076 118.115 166.493 118.115Z" fill="#9B9B9B"/>
<path d="M179.423 118.115C178.839 118.115 178.28 117.884 177.867 117.472C177.455 117.06 177.223 116.501 177.223 115.918V94.8736C177.223 94.2909 177.455 93.732 177.867 93.32C178.28 92.9079 178.839 92.6765 179.423 92.6765C180.006 92.6765 180.565 92.9079 180.978 93.32C181.39 93.732 181.622 94.2909 181.622 94.8736V115.918C181.622 116.501 181.39 117.06 180.978 117.472C180.565 117.884 180.006 118.115 179.423 118.115Z" fill="#9B9B9B"/>
<path d="M192.352 118.115C191.769 118.115 191.209 117.884 190.797 117.472C190.384 117.06 190.152 116.501 190.152 115.918V98.3803C190.152 97.7975 190.384 97.2387 190.797 96.8266C191.209 96.4146 191.769 96.1831 192.352 96.1831C192.935 96.1831 193.495 96.4146 193.907 96.8266C194.32 97.2387 194.552 97.7975 194.552 98.3803V115.918C194.552 116.501 194.32 117.06 193.907 117.472C193.495 117.884 192.935 118.115 192.352 118.115V118.115Z" fill="#232323"/>
<path d="M205.282 118.115C204.698 118.115 204.139 117.884 203.726 117.472C203.314 117.06 203.082 116.501 203.082 115.918V87.8867C203.082 87.3039 203.314 86.7451 203.726 86.333C204.139 85.921 204.698 85.6895 205.282 85.6895C205.865 85.6895 206.425 85.921 206.837 86.333C207.25 86.7451 207.481 87.3039 207.481 87.8867V115.936C207.477 116.515 207.243 117.07 206.831 117.478C206.419 117.886 205.862 118.115 205.282 118.115V118.115Z" fill="#232323"/>
<path d="M138.011 149.499C137.428 149.499 136.869 149.268 136.456 148.856C136.044 148.444 135.812 147.885 135.812 147.302C135.808 144.095 134.531 141.02 132.26 138.753C129.99 136.486 126.911 135.211 123.7 135.209C123.117 135.209 122.558 134.977 122.145 134.565C121.732 134.153 121.501 133.594 121.501 133.012C121.501 132.429 121.732 131.87 122.145 131.458C122.558 131.046 123.117 130.815 123.7 130.815C128.077 130.818 132.274 132.556 135.37 135.647C138.465 138.738 140.206 142.93 140.211 147.302C140.211 147.885 139.979 148.444 139.567 148.856C139.154 149.268 138.595 149.499 138.011 149.499V149.499Z" fill="#232323"/>
<path d="M123.7 163.794C123.117 163.794 122.558 163.562 122.145 163.15C121.732 162.738 121.501 162.179 121.501 161.597C121.501 161.014 121.732 160.455 122.145 160.043C122.558 159.631 123.117 159.4 123.7 159.4C126.911 159.396 129.99 158.12 132.261 155.852C134.531 153.584 135.808 150.509 135.812 147.302C135.812 146.719 136.044 146.161 136.456 145.748C136.869 145.336 137.428 145.105 138.011 145.105C138.595 145.105 139.154 145.336 139.567 145.748C139.979 146.161 140.211 146.719 140.211 147.302C140.206 151.675 138.465 155.867 135.37 158.958C132.275 162.05 128.078 163.789 123.7 163.794V163.794Z" fill="white"/>
<path d="M123.701 163.794C119.324 163.788 115.128 162.049 112.034 158.957C108.939 155.865 107.199 151.674 107.194 147.302C107.194 146.719 107.426 146.161 107.839 145.748C108.251 145.336 108.811 145.105 109.394 145.105C109.977 145.105 110.537 145.336 110.949 145.748C111.362 146.161 111.594 146.719 111.594 147.302C111.597 150.509 112.874 153.583 115.143 155.851C117.413 158.119 120.49 159.395 123.701 159.4C124.284 159.4 124.844 159.631 125.256 160.043C125.669 160.455 125.9 161.014 125.9 161.597C125.9 162.179 125.669 162.738 125.256 163.15C124.844 163.562 124.284 163.794 123.701 163.794Z" fill="#9B9B9B"/>
<path d="M109.394 149.499C108.811 149.499 108.251 149.268 107.839 148.856C107.426 148.444 107.194 147.885 107.194 147.302C107.199 142.931 108.94 138.74 112.034 135.649C115.129 132.558 119.324 130.819 123.701 130.815C124.284 130.815 124.844 131.046 125.256 131.458C125.669 131.87 125.9 132.429 125.9 133.012C125.9 133.594 125.669 134.153 125.256 134.565C124.844 134.977 124.284 135.209 123.701 135.209C120.491 135.212 117.413 136.488 115.144 138.755C112.874 141.022 111.597 144.096 111.594 147.302C111.594 147.885 111.362 148.444 110.949 148.856C110.537 149.268 109.977 149.499 109.394 149.499V149.499Z" fill="#4A4A4A"/>
<path d="M184.878 155.955H156.797C156.213 155.955 155.654 155.723 155.241 155.311C154.829 154.899 154.597 154.34 154.597 153.757C154.597 153.175 154.829 152.616 155.241 152.204C155.654 151.792 156.213 151.56 156.797 151.56H184.878C185.461 151.56 186.02 151.792 186.433 152.204C186.845 152.616 187.077 153.175 187.077 153.757C187.077 154.34 186.845 154.899 186.433 155.311C186.02 155.723 185.461 155.955 184.878 155.955Z" fill="#232323"/>
<path d="M195.405 143.044H156.797C156.213 143.044 155.654 142.812 155.241 142.4C154.829 141.988 154.597 141.43 154.597 140.847C154.597 140.264 154.829 139.705 155.241 139.293C155.654 138.881 156.213 138.65 156.797 138.65H195.405C195.989 138.65 196.548 138.881 196.961 139.293C197.373 139.705 197.605 140.264 197.605 140.847C197.605 141.43 197.373 141.988 196.961 142.4C196.548 142.812 195.989 143.044 195.405 143.044Z" fill="#2F2F2F"/>
<path d="M67.4639 78.1489H53.5268C52.9434 78.1489 52.3839 77.9174 51.9714 77.5054C51.5589 77.0933 51.3271 76.5345 51.3271 75.9517C51.3271 75.369 51.5589 74.8102 51.9714 74.3981C52.3839 73.9861 52.9434 73.7546 53.5268 73.7546H67.4639C68.0473 73.7546 68.6068 73.9861 69.0193 74.3981C69.4318 74.8102 69.6636 75.369 69.6636 75.9517C69.6636 76.5345 69.4318 77.0933 69.0193 77.5054C68.6068 77.9174 68.0473 78.1489 67.4639 78.1489V78.1489Z" fill="#2F2F2F"/>
<path d="M67.4639 94.7594H53.5268C52.9434 94.7594 52.3839 94.5279 51.9714 94.1158C51.5589 93.7038 51.3271 93.1449 51.3271 92.5622C51.3271 91.9795 51.5589 91.4206 51.9714 91.0086C52.3839 90.5965 52.9434 90.3651 53.5268 90.3651H67.4639C68.0473 90.3651 68.6068 90.5965 69.0193 91.0086C69.4318 91.4206 69.6636 91.9795 69.6636 92.5622C69.6636 93.1449 69.4318 93.7038 69.0193 94.1158C68.6068 94.5279 68.0473 94.7594 67.4639 94.7594V94.7594Z" fill="#2F2F2F"/>
<path d="M67.4639 111.374H53.5268C52.9434 111.374 52.3839 111.143 51.9714 110.731C51.5589 110.319 51.3271 109.76 51.3271 109.177C51.3271 108.594 51.5589 108.035 51.9714 107.623C52.3839 107.211 52.9434 106.98 53.5268 106.98H67.4639C68.0473 106.98 68.6068 107.211 69.0193 107.623C69.4318 108.035 69.6636 108.594 69.6636 109.177C69.6636 109.76 69.4318 110.319 69.0193 110.731C68.6068 111.143 68.0473 111.374 67.4639 111.374V111.374Z" fill="#2F2F2F"/>
<path d="M67.4639 127.985H53.5268C52.9434 127.985 52.3839 127.753 51.9714 127.341C51.5589 126.929 51.3271 126.37 51.3271 125.788C51.3271 125.205 51.5589 124.646 51.9714 124.234C52.3839 123.822 52.9434 123.59 53.5268 123.59H67.4639C68.0473 123.59 68.6068 123.822 69.0193 124.234C69.4318 124.646 69.6636 125.205 69.6636 125.788C69.6636 126.37 69.4318 126.929 69.0193 127.341C68.6068 127.753 68.0473 127.985 67.4639 127.985V127.985Z" fill="#2F2F2F"/>
<path d="M67.4639 144.6H53.5268C52.9434 144.6 52.3839 144.368 51.9714 143.956C51.5589 143.544 51.3271 142.985 51.3271 142.402C51.3271 141.82 51.5589 141.261 51.9714 140.849C52.3839 140.437 52.9434 140.205 53.5268 140.205H67.4639C68.0473 140.205 68.6068 140.437 69.0193 140.849C69.4318 141.261 69.6636 141.82 69.6636 142.402C69.6636 142.985 69.4318 143.544 69.0193 143.956C68.6068 144.368 68.0473 144.6 67.4639 144.6V144.6Z" fill="#2F2F2F"/>
<path d="M67.4639 161.214H53.5268C52.9434 161.214 52.3839 160.983 51.9714 160.571C51.5589 160.159 51.3271 159.6 51.3271 159.017C51.3271 158.435 51.5589 157.876 51.9714 157.464C52.3839 157.052 52.9434 156.82 53.5268 156.82H67.4639C68.0473 156.82 68.6068 157.052 69.0193 157.464C69.4318 157.876 69.6636 158.435 69.6636 159.017C69.6636 159.6 69.4318 160.159 69.0193 160.571C68.6068 160.983 68.0473 161.214 67.4639 161.214V161.214Z" fill="#2F2F2F"/>
<path d="M205.796 77.3579C224.568 77.3579 239.786 64.7331 239.786 49.1596C239.786 33.5862 224.568 20.9614 205.796 20.9614C187.025 20.9614 171.807 33.5862 171.807 49.1596C171.807 64.7331 187.025 77.3579 205.796 77.3579Z" fill="#161616"/>
<path d="M205.797 79.5374C185.841 79.5374 169.608 65.9151 169.608 49.1464C169.608 32.3777 185.841 18.751 205.797 18.751C225.752 18.751 241.986 32.3733 241.986 49.1464C241.986 65.9195 225.748 79.5374 205.797 79.5374ZM205.797 23.1453C188.265 23.1453 174.007 34.8078 174.007 49.1464C174.007 63.485 188.265 75.1431 205.797 75.1431C223.328 75.1431 237.586 63.4806 237.586 49.1464C237.586 34.8122 223.324 23.1585 205.797 23.1585V23.1453Z" fill="white"/>
<path d="M241.95 60.2069C246.895 60.2069 250.903 55.2608 250.903 49.1596C250.903 43.0583 246.895 38.1123 241.95 38.1123C237.006 38.1123 232.998 43.0583 232.998 49.1596C232.998 55.2608 237.006 60.2069 241.95 60.2069Z" fill="#161616"/>
<path d="M241.963 62.3997C235.804 62.3997 230.811 56.4586 230.811 49.1596C230.811 41.8607 235.804 35.9152 241.963 35.9152C248.122 35.9152 253.12 41.8563 253.12 49.1596C253.12 56.4629 248.096 62.3997 241.963 62.3997ZM241.963 40.3095C238.242 40.3095 235.21 44.2643 235.21 49.1596C235.21 54.0549 238.224 58.0053 241.963 58.0053C245.703 58.0053 248.721 54.0505 248.721 49.1596C248.721 44.2687 245.672 40.3095 241.963 40.3095V40.3095Z" fill="white"/>
<path d="M169.643 60.2069C174.587 60.2069 178.595 55.2608 178.595 49.1596C178.595 43.0583 174.587 38.1123 169.643 38.1123C164.698 38.1123 160.69 43.0583 160.69 49.1596C160.69 55.2608 164.698 60.2069 169.643 60.2069Z" fill="#161616"/>
<path d="M169.643 62.3997C163.484 62.3997 158.49 56.4586 158.49 49.1596C158.49 41.8607 163.493 35.9152 169.643 35.9152C175.793 35.9152 180.813 41.8563 180.813 49.1596C180.813 56.4629 175.793 62.3997 169.643 62.3997ZM169.643 40.3095C165.917 40.3095 162.89 44.2643 162.89 49.1596C162.89 54.0549 165.917 58.0053 169.643 58.0053C173.369 58.0053 176.413 54.0505 176.413 49.1596C176.413 44.2687 173.369 40.3095 169.643 40.3095V40.3095Z" fill="white"/>
<path d="M195.85 55.839C194.482 55.839 193.145 55.4338 192.007 54.6748C190.87 53.9157 189.984 52.8369 189.46 51.5746C188.937 50.3124 188.8 48.9234 189.067 47.5835C189.334 46.2435 189.992 45.0126 190.959 44.0465C191.927 43.0804 193.159 42.4225 194.5 42.156C195.842 41.8894 197.232 42.0262 198.496 42.5491C199.76 43.0719 200.84 43.9573 201.6 45.0933C202.36 46.2293 202.765 47.5649 202.765 48.9311C202.762 50.7621 202.032 52.5171 200.736 53.8119C199.44 55.1066 197.683 55.8355 195.85 55.839V55.839ZM195.85 46.4176C195.352 46.4176 194.865 46.565 194.452 46.8412C194.038 47.1174 193.715 47.5099 193.525 47.9692C193.334 48.4285 193.284 48.9339 193.382 49.4215C193.479 49.9091 193.718 50.3569 194.07 50.7085C194.422 51.06 194.871 51.2994 195.359 51.3964C195.847 51.4933 196.353 51.4436 196.813 51.2533C197.272 51.0631 197.665 50.7409 197.942 50.3276C198.218 49.9142 198.366 49.4282 198.366 48.9311C198.365 48.2648 198.099 47.6262 197.628 47.155C197.156 46.6839 196.517 46.4187 195.85 46.4176Z" fill="white"/>
<path d="M215.739 55.839C214.371 55.839 213.034 55.4338 211.897 54.6748C210.76 53.9157 209.873 52.8369 209.35 51.5746C208.826 50.3124 208.689 48.9234 208.956 47.5835C209.223 46.2435 209.882 45.0126 210.849 44.0465C211.816 43.0804 213.048 42.4225 214.39 42.156C215.731 41.8894 217.122 42.0262 218.386 42.5491C219.649 43.0719 220.729 43.9573 221.489 45.0933C222.249 46.2293 222.655 47.5649 222.655 48.9311C222.652 50.7625 221.923 52.5182 220.627 53.8131C219.33 55.1081 217.572 55.8366 215.739 55.839V55.839ZM215.739 46.4176C215.241 46.4176 214.755 46.565 214.341 46.8412C213.927 47.1174 213.605 47.5099 213.414 47.9692C213.224 48.4285 213.174 48.9339 213.271 49.4215C213.368 49.9091 213.608 50.3569 213.96 50.7085C214.312 51.06 214.76 51.2994 215.248 51.3964C215.736 51.4933 216.242 51.4436 216.702 51.2533C217.162 51.0631 217.555 50.7409 217.831 50.3276C218.108 49.9142 218.255 49.4282 218.255 48.9311C218.254 48.2648 217.989 47.6262 217.517 47.155C217.045 46.6839 216.406 46.4187 215.739 46.4176V46.4176Z" fill="white"/>
<path d="M241.963 15.5739C240.596 15.5739 239.258 15.1688 238.121 14.4098C236.984 13.6507 236.097 12.5719 235.574 11.3096C235.051 10.0474 234.914 8.65843 235.18 7.31844C235.447 5.97845 236.106 4.74759 237.073 3.78151C238.04 2.81543 239.273 2.15752 240.614 1.89098C241.956 1.62443 243.346 1.76123 244.61 2.28407C245.874 2.80691 246.954 3.69231 247.714 4.8283C248.474 5.96429 248.879 7.29985 248.879 8.66609C248.878 10.4978 248.149 12.2542 246.852 13.5494C245.556 14.8446 243.797 15.5728 241.963 15.5739V15.5739ZM241.963 6.15255C241.466 6.15255 240.979 6.29997 240.565 6.57616C240.152 6.85235 239.829 7.24491 239.638 7.7042C239.448 8.16349 239.398 8.66888 239.495 9.15646C239.592 9.64404 239.832 10.0919 240.184 10.4434C240.536 10.795 240.984 11.0344 241.472 11.1313C241.961 11.2283 242.467 11.1786 242.926 10.9883C243.386 10.7981 243.779 10.4759 244.056 10.0625C244.332 9.64919 244.48 9.16323 244.48 8.66609C244.48 7.99946 244.215 7.36013 243.743 6.88875C243.271 6.41737 242.631 6.15255 241.963 6.15255Z" fill="white"/>
<path d="M241.963 40.3095C241.38 40.3095 240.82 40.078 240.408 39.6659C239.995 39.2539 239.764 38.695 239.764 38.1123V14.26C239.764 13.6773 239.995 13.1184 240.408 12.7064C240.82 12.2944 241.38 12.0629 241.963 12.0629C242.547 12.0629 243.106 12.2944 243.519 12.7064C243.931 13.1184 244.163 13.6773 244.163 14.26V38.1123C244.163 38.695 243.931 39.2539 243.519 39.6659C243.106 40.078 242.547 40.3095 241.963 40.3095V40.3095Z" fill="white"/>
<path d="M169.643 15.5739C168.275 15.5739 166.938 15.1688 165.801 14.4098C164.663 13.6507 163.777 12.5719 163.253 11.3096C162.73 10.0474 162.593 8.65843 162.86 7.31844C163.127 5.97845 163.785 4.74759 164.753 3.78151C165.72 2.81543 166.952 2.15752 168.294 1.89098C169.635 1.62443 171.026 1.76123 172.289 2.28407C173.553 2.80691 174.633 3.69231 175.393 4.8283C176.153 5.96429 176.559 7.29985 176.559 8.66609C176.556 10.4975 175.827 12.2531 174.53 13.5481C173.234 14.8431 171.476 15.5716 169.643 15.5739V15.5739ZM169.643 6.15255C169.145 6.15255 168.659 6.29997 168.245 6.57616C167.831 6.85235 167.508 7.24491 167.318 7.7042C167.127 8.16349 167.078 8.66888 167.175 9.15646C167.272 9.64404 167.512 10.0919 167.863 10.4434C168.215 10.795 168.664 11.0344 169.152 11.1313C169.64 11.2283 170.146 11.1786 170.606 10.9883C171.066 10.7981 171.459 10.4759 171.735 10.0625C172.012 9.64919 172.159 9.16323 172.159 8.66609C172.158 7.99982 171.893 7.36116 171.421 6.89003C170.949 6.4189 170.31 6.15371 169.643 6.15255V6.15255Z" fill="white"/>
<path d="M169.643 40.3095C169.059 40.3095 168.5 40.078 168.087 39.6659C167.675 39.2539 167.443 38.695 167.443 38.1123V14.26C167.443 13.6773 167.675 13.1184 168.087 12.7064C168.5 12.2944 169.059 12.0629 169.643 12.0629C170.226 12.0629 170.786 12.2944 171.198 12.7064C171.611 13.1184 171.842 13.6773 171.842 14.26V38.1123C171.842 38.695 171.611 39.2539 171.198 39.6659C170.786 40.078 170.226 40.3095 169.643 40.3095V40.3095Z" fill="white"/>
<path d="M71.8125 30.8789C71.4478 30.878 71.089 30.7865 70.7684 30.6126C70.4478 30.4387 70.1756 30.1879 69.9762 29.8829C69.7768 29.5778 69.6565 29.2279 69.6261 28.8648C69.5957 28.5017 69.6561 28.1368 69.8021 27.8029L81.5703 1.31837C81.743 0.929756 82.0248 0.599539 82.3817 0.36777C82.7386 0.136 83.1551 0.0126343 83.5808 0.0126343C84.0064 0.0126343 84.423 0.136 84.7798 0.36777C85.1367 0.599539 85.4186 0.929756 85.5913 1.31837L97.3595 27.8029C97.4756 28.0677 97.5384 28.3529 97.5442 28.642C97.55 28.9311 97.4987 29.2185 97.3933 29.4878C97.2879 29.7571 97.1305 30.003 96.9299 30.2116C96.7293 30.4201 96.4896 30.5871 96.2245 30.7031C95.9593 30.8191 95.6738 30.8818 95.3844 30.8876C95.095 30.8934 94.8072 30.8422 94.5376 30.7369C94.268 30.6316 94.0218 30.4743 93.813 30.274C93.6042 30.0737 93.437 29.8343 93.3209 29.5694L83.5632 7.59784L73.8098 29.5694C73.6386 29.9567 73.359 30.2863 73.0047 30.5186C72.6504 30.7509 72.2364 30.876 71.8125 30.8789V30.8789Z" fill="white"/>
<path d="M104.759 30.8788C104.175 30.8788 103.616 30.6473 103.203 30.2353C102.791 29.8232 102.559 29.2644 102.559 28.6816V2.19715C102.559 1.61443 102.791 1.05558 103.203 0.643532C103.616 0.231485 104.175 0 104.759 0C105.342 0 105.902 0.231485 106.314 0.643532C106.727 1.05558 106.958 1.61443 106.958 2.19715V28.6816C106.958 29.2644 106.727 29.8232 106.314 30.2353C105.902 30.6473 105.342 30.8788 104.759 30.8788Z" fill="white"/>
<path d="M91.7326 22.7362H75.4287C74.8453 22.7362 74.2858 22.5047 73.8733 22.0927C73.4608 21.6806 73.229 21.1218 73.229 20.5391C73.229 19.9564 73.4608 19.3975 73.8733 18.9855C74.2858 18.5734 74.8453 18.3419 75.4287 18.3419H91.7326C92.316 18.3419 92.8755 18.5734 93.288 18.9855C93.7005 19.3975 93.9323 19.9564 93.9323 20.5391C93.9323 21.1218 93.7005 21.6806 93.288 22.0927C92.8755 22.5047 92.316 22.7362 91.7326 22.7362V22.7362Z" fill="white"/>
<path d="M143.201 223.051H135.282C134.932 223.051 134.596 222.912 134.348 222.665C134.101 222.418 133.962 222.083 133.962 221.733C133.962 221.383 134.101 221.048 134.348 220.801C134.596 220.554 134.932 220.415 135.282 220.415H143.201C143.551 220.415 143.886 220.554 144.134 220.801C144.381 221.048 144.52 221.383 144.52 221.733C144.52 222.083 144.381 222.418 144.134 222.665C143.886 222.912 143.551 223.051 143.201 223.051V223.051Z" fill="#9B9B9B"/>
<path d="M128.093 216.912H123.034C122.684 216.912 122.348 216.774 122.101 216.526C121.853 216.279 121.714 215.944 121.714 215.594V209.442C121.714 209.092 121.853 208.757 122.101 208.51C122.348 208.263 122.684 208.124 123.034 208.124H128.093C129.26 208.124 130.379 208.587 131.204 209.411C132.029 210.235 132.493 211.353 132.493 212.518C132.493 213.684 132.029 214.801 131.204 215.625C130.379 216.449 129.26 216.912 128.093 216.912V216.912ZM124.345 214.276H128.093C128.56 214.276 129.008 214.091 129.338 213.761C129.668 213.431 129.853 212.984 129.853 212.518C129.853 212.052 129.668 211.605 129.338 211.275C129.008 210.946 128.56 210.76 128.093 210.76H124.354L124.345 214.276Z" fill="#9B9B9B"/>
<path d="M135.269 223.051C135.008 223.051 134.753 222.973 134.536 222.829C134.319 222.684 134.15 222.478 134.05 222.237C133.951 221.996 133.925 221.732 133.975 221.476C134.026 221.22 134.152 220.986 134.336 220.801L140.055 215.089C140.578 214.531 140.863 213.792 140.85 213.028C140.837 212.264 140.528 211.535 139.987 210.995C139.446 210.455 138.716 210.146 137.952 210.133C137.187 210.121 136.447 210.405 135.889 210.927C135.639 211.16 135.308 211.287 134.966 211.281C134.624 211.275 134.298 211.136 134.056 210.895C133.814 210.653 133.676 210.328 133.67 209.986C133.664 209.645 133.791 209.314 134.024 209.064C135.074 208.018 136.497 207.432 137.98 207.434C139.463 207.436 140.884 208.026 141.931 209.075C142.979 210.124 143.566 211.545 143.564 213.027C143.562 214.508 142.971 215.928 141.92 216.974L136.201 222.686C135.95 222.926 135.615 223.057 135.269 223.051V223.051Z" fill="#9B9B9B"/>
<path d="M128.093 223.051H123.034C122.684 223.051 122.348 222.912 122.101 222.665C121.853 222.418 121.714 222.082 121.714 221.733V215.581C121.714 215.231 121.853 214.896 122.101 214.649C122.348 214.401 122.684 214.263 123.034 214.263H128.093C129.26 214.263 130.379 214.725 131.204 215.55C132.029 216.374 132.493 217.491 132.493 218.657C132.493 219.822 132.029 220.94 131.204 221.764C130.379 222.588 129.26 223.051 128.093 223.051V223.051ZM124.345 220.415H128.093C128.56 220.415 129.008 220.229 129.338 219.9C129.668 219.57 129.853 219.123 129.853 218.657C129.853 218.191 129.668 217.744 129.338 217.414C129.008 217.084 128.56 216.899 128.093 216.899H124.354L124.345 220.415Z" fill="#9B9B9B"/>
<path d="M152.677 216.912H147.613C147.263 216.912 146.927 216.774 146.68 216.526C146.432 216.279 146.293 215.944 146.293 215.594V209.442C146.293 209.092 146.432 208.757 146.68 208.51C146.927 208.263 147.263 208.124 147.613 208.124H152.677C153.843 208.124 154.962 208.587 155.787 209.411C156.612 210.235 157.076 211.353 157.076 212.518C157.076 213.684 156.612 214.801 155.787 215.625C154.962 216.449 153.843 216.912 152.677 216.912V216.912ZM148.933 214.276H152.677C153.143 214.276 153.591 214.091 153.921 213.761C154.251 213.431 154.436 212.984 154.436 212.518C154.436 212.052 154.251 211.605 153.921 211.275C153.591 210.946 153.143 210.76 152.677 210.76H148.933V214.276Z" fill="#9B9B9B"/>
<path d="M152.677 223.051H147.613C147.263 223.051 146.927 222.912 146.68 222.665C146.432 222.418 146.293 222.082 146.293 221.733V215.581C146.293 215.231 146.432 214.896 146.68 214.649C146.927 214.401 147.263 214.263 147.613 214.263H152.677C153.843 214.263 154.962 214.725 155.787 215.55C156.612 216.374 157.076 217.491 157.076 218.657C157.076 219.822 156.612 220.94 155.787 221.764C154.962 222.588 153.843 223.051 152.677 223.051V223.051ZM148.933 220.415H152.677C153.143 220.415 153.591 220.229 153.921 219.9C154.251 219.57 154.436 219.123 154.436 218.657C154.436 218.191 154.251 217.744 153.921 217.414C153.591 217.084 153.143 216.899 152.677 216.899H148.933V220.415Z" fill="#9B9B9B"/>
<path d="M127.933 234.459C123.12 234.459 118.504 232.549 115.101 229.15C111.698 225.75 109.786 221.14 109.786 216.332C109.786 211.525 111.698 206.914 115.101 203.515C118.504 200.116 123.12 198.206 127.933 198.206C128.283 198.206 128.619 198.345 128.866 198.592C129.114 198.839 129.253 199.174 129.253 199.524C129.253 199.874 129.114 200.209 128.866 200.456C128.619 200.703 128.283 200.842 127.933 200.842C123.82 200.842 119.876 202.474 116.967 205.379C114.059 208.284 112.425 212.224 112.425 216.332C112.425 220.44 114.059 224.38 116.967 227.285C119.876 230.19 123.82 231.822 127.933 231.822C128.283 231.822 128.619 231.961 128.866 232.208C129.114 232.456 129.253 232.791 129.253 233.14C129.253 233.49 129.114 233.825 128.866 234.073C128.619 234.32 128.283 234.459 127.933 234.459Z" fill="#232323"/>
<path d="M125.117 239.121C124.856 239.121 124.601 239.044 124.384 238.899C124.168 238.754 123.999 238.548 123.899 238.307C123.799 238.067 123.773 237.802 123.824 237.546C123.874 237.29 124 237.056 124.184 236.871L127.915 233.141L124.184 229.414C123.951 229.164 123.824 228.834 123.83 228.492C123.836 228.151 123.975 227.825 124.217 227.583C124.458 227.342 124.785 227.203 125.127 227.197C125.469 227.191 125.799 227.318 126.05 227.551L130.717 232.209C130.964 232.456 131.103 232.791 131.103 233.141C131.103 233.49 130.964 233.825 130.717 234.072L126.05 238.735C125.802 238.982 125.467 239.121 125.117 239.121V239.121Z" fill="#232323"/>
<path d="M150.157 234.459C149.807 234.459 149.471 234.32 149.224 234.073C148.976 233.825 148.837 233.49 148.837 233.14C148.837 232.791 148.976 232.456 149.224 232.208C149.471 231.961 149.807 231.822 150.157 231.822C154.27 231.822 158.214 230.19 161.123 227.285C164.031 224.38 165.665 220.44 165.665 216.332C165.665 212.224 164.031 208.284 161.123 205.379C158.214 202.474 154.27 200.842 150.157 200.842C149.807 200.842 149.471 200.703 149.224 200.456C148.976 200.209 148.837 199.874 148.837 199.524C148.837 199.174 148.976 198.839 149.224 198.592C149.471 198.345 149.807 198.206 150.157 198.206C154.97 198.206 159.586 200.116 162.989 203.515C166.392 206.914 168.304 211.525 168.304 216.332C168.304 221.14 166.392 225.75 162.989 229.15C159.586 232.549 154.97 234.459 150.157 234.459Z" fill="#232323"/>
<path d="M152.986 205.505C152.636 205.504 152.3 205.365 152.053 205.118L147.385 200.456C147.138 200.208 147 199.873 147 199.524C147 199.175 147.138 198.84 147.385 198.592L152.053 193.934C152.174 193.805 152.32 193.701 152.482 193.629C152.644 193.557 152.818 193.518 152.995 193.515C153.173 193.512 153.349 193.545 153.513 193.611C153.677 193.677 153.827 193.776 153.952 193.901C154.077 194.026 154.176 194.175 154.243 194.339C154.309 194.504 154.341 194.679 154.338 194.856C154.335 195.033 154.296 195.208 154.224 195.37C154.152 195.531 154.048 195.677 153.919 195.798L150.188 199.524L153.919 203.255C154.103 203.439 154.228 203.674 154.279 203.93C154.33 204.185 154.304 204.45 154.204 204.691C154.104 204.931 153.935 205.137 153.718 205.282C153.502 205.427 153.247 205.504 152.986 205.505Z" fill="#232323"/>
<path d="M41.1999 189.861C50.2869 189.861 57.6534 182.503 57.6534 173.426C57.6534 164.35 50.2869 156.991 41.1999 156.991C32.1128 156.991 24.7463 164.35 24.7463 173.426C24.7463 182.503 32.1128 189.861 41.1999 189.861Z" fill="#161616"/>
<path d="M41.1996 192.058C37.5101 192.058 33.9036 190.965 30.836 188.918C27.7684 186.87 25.3775 183.96 23.9659 180.555C22.5542 177.151 22.185 173.404 22.9051 169.79C23.6252 166.175 25.4022 162.856 28.0113 160.25C30.6205 157.644 33.9446 155.87 37.5632 155.152C41.1819 154.433 44.9325 154.803 48.3409 156.214C51.7492 157.625 54.6622 160.014 56.7113 163.078C58.7604 166.143 59.8536 169.745 59.8527 173.431C59.8458 178.37 57.8781 183.104 54.3814 186.596C50.8846 190.088 46.1442 192.052 41.1996 192.058V192.058ZM41.1996 159.193C38.3804 159.193 35.6246 160.028 33.2806 161.593C30.9365 163.157 29.1096 165.381 28.0307 167.982C26.9519 170.584 26.6696 173.446 27.2196 176.208C27.7696 178.97 29.1271 181.507 31.1206 183.498C33.114 185.489 35.6538 186.845 38.4188 187.395C41.1838 187.944 44.0497 187.662 46.6543 186.584C49.2588 185.507 51.485 183.682 53.0512 181.341C54.6174 178.999 55.4534 176.247 55.4534 173.431C55.4488 169.656 53.9455 166.037 51.2734 163.368C48.6013 160.699 44.9785 159.198 41.1996 159.193V159.193Z" fill="white"/>
<path d="M77.9915 235.469H73.5922C73.5922 226.888 70.1794 218.659 64.1047 212.591C58.0299 206.523 49.7908 203.114 41.1999 203.114C32.6089 203.114 24.3698 206.523 18.295 212.591C12.2203 218.659 8.80755 226.888 8.80755 235.469H4.39941C4.39941 225.723 8.27566 216.375 15.1754 209.484C22.0752 202.592 31.4333 198.72 41.191 198.72C50.9488 198.72 60.3069 202.592 67.2067 209.484C74.1064 216.375 77.9827 225.723 77.9827 235.469H77.9915Z" fill="white"/>
<path d="M6.59901 98.8724C5.29385 98.8724 4.018 98.4859 2.9328 97.7616C1.8476 97.0373 1.00178 96.0079 0.502322 94.8034C0.00285926 93.599 -0.127823 92.2737 0.126801 90.995C0.381425 89.7164 1.00992 88.5419 1.93281 87.6201C2.85569 86.6983 4.03152 86.0705 5.3116 85.8162C6.59168 85.5618 7.91852 85.6924 9.12433 86.1913C10.3301 86.6902 11.3608 87.535 12.0859 88.619C12.811 89.7029 13.198 90.9773 13.198 92.281C13.198 94.0291 12.5028 95.7057 11.2652 96.9418C10.0277 98.178 8.34917 98.8724 6.59901 98.8724ZM6.59901 90.0838C6.16395 90.0838 5.73867 90.2127 5.37694 90.4541C5.0152 90.6955 4.73326 91.0387 4.56678 91.4402C4.40029 91.8416 4.35673 92.2834 4.4416 92.7096C4.52648 93.1358 4.73598 93.5273 5.04361 93.8346C5.35123 94.1419 5.74318 94.3511 6.16987 94.4359C6.59657 94.5207 7.03885 94.4772 7.44078 94.3109C7.84272 94.1446 8.18626 93.863 8.42796 93.5017C8.66966 93.1403 8.79867 92.7155 8.79867 92.281C8.79867 91.6983 8.56692 91.1394 8.15441 90.7274C7.74189 90.3153 7.18239 90.0838 6.59901 90.0838V90.0838Z" fill="#2F2F2F"/>
<path d="M258.408 133.064C261.467 133.064 263.947 130.588 263.947 127.532C263.947 124.477 261.467 122 258.408 122C255.349 122 252.869 124.477 252.869 127.532C252.869 130.588 255.349 133.064 258.408 133.064Z" fill="white"/>
<path d="M259.279 146.221C256.897 146.222 254.545 145.684 252.401 144.649C250.256 143.613 248.374 142.106 246.895 140.24C246.716 140.014 246.583 139.754 246.505 139.477C246.426 139.199 246.403 138.908 246.436 138.622C246.47 138.335 246.56 138.058 246.701 137.806C246.842 137.554 247.031 137.332 247.258 137.153C247.485 136.974 247.745 136.842 248.023 136.763C248.301 136.685 248.591 136.662 248.878 136.695C249.165 136.729 249.443 136.819 249.695 136.96C249.947 137.1 250.169 137.289 250.348 137.516C251.273 138.684 252.418 139.658 253.72 140.383C255.021 141.109 256.453 141.571 257.933 141.744C259.413 141.917 260.913 141.797 262.347 141.391C263.781 140.984 265.12 140.3 266.289 139.377C267.458 138.454 268.434 137.309 269.16 136.009C269.887 134.71 270.349 133.279 270.522 131.801C270.696 130.322 270.575 128.824 270.169 127.392C269.762 125.96 269.077 124.622 268.153 123.454C267.791 122.997 267.626 122.414 267.694 121.836C267.762 121.257 268.058 120.728 268.516 120.367C268.973 120.006 269.556 119.841 270.136 119.909C270.716 119.977 271.244 120.272 271.606 120.73C273.439 123.046 274.582 125.83 274.905 128.765C275.229 131.699 274.719 134.666 273.434 137.324C272.149 139.983 270.141 142.227 267.639 143.799C265.138 145.372 262.244 146.21 259.288 146.217L259.279 146.221Z" fill="#232323"/>
</svg>
