<svg width="950" height="980" viewBox="0 0 950 980" fill="none" xmlns="http://www.w3.org/2000/svg">
<circle cx="263" cy="511" r="611" stroke="#151517" stroke-width="20"/>
<circle cx="803.5" cy="281.5" r="136.5" fill="#0A0A0B" stroke="#151517" stroke-width="20"/>
<path d="M748.304 281.4C748.304 301.368 757.808 316.536 776.432 316.536C795.056 316.536 804.464 301.368 804.464 281.4C804.464 261.432 795.056 246.36 776.432 246.36C757.808 246.36 748.304 261.432 748.304 281.4ZM761.264 281.496C761.264 269.592 765.584 258.84 776.432 258.84C787.184 258.84 791.504 269.592 791.504 281.496C791.504 293.304 787.184 304.152 776.432 304.152C765.584 304.152 761.264 293.304 761.264 281.496ZM828.436 299.352C832.948 294.744 841.492 285.912 849.652 277.272C860.884 265.368 852.148 246.36 835.54 246.36C815.284 246.36 808.948 261.528 808.948 271.32H821.716C821.716 266.616 823.54 258.744 831.892 258.744C839.476 258.744 846.196 266.52 831.316 280.344C817.396 293.112 810.004 301.08 807.7 303.384V315H855.124V302.712H829.78C826.996 302.712 823.828 304.44 821.236 305.496L820.372 303.48C822.964 302.424 826.42 301.368 828.436 299.352Z" fill="white"/>
<path d="M317.06 462.139C343.979 462.139 365.801 440.317 365.801 413.397C365.801 386.478 343.979 364.656 317.06 364.656C290.14 364.656 268.318 386.478 268.318 413.397C268.318 440.317 290.14 462.139 317.06 462.139Z" fill="white"/>
<path d="M299.924 633.795C247.768 633.795 196.056 610.696 161.301 566.432C152.872 555.676 154.696 540.112 165.344 531.636C176.041 523.16 191.52 524.994 199.95 535.701C243.381 591.018 323.488 600.485 378.503 556.767C433.518 513.098 442.934 432.55 399.454 377.233C391.024 366.477 392.848 350.913 403.496 342.437C414.194 333.961 429.673 335.795 438.102 346.501C498.392 423.281 485.329 535.007 409.017 595.677C376.728 621.353 338.129 633.795 299.875 633.795H299.924Z" fill="#1D1D1F"/>
</svg>
