<svg width="320" height="297" viewBox="0 0 320 297" fill="none" xmlns="http://www.w3.org/2000/svg">
<path d="M161.06 125.139C187.979 125.139 209.801 103.317 209.801 76.3975C209.801 49.4782 187.979 27.6558 161.06 27.6558C134.14 27.6558 112.318 49.4782 112.318 76.3975C112.318 103.317 134.14 125.139 161.06 125.139Z" fill="white"/>
<path d="M143.924 296.795C91.7679 296.795 40.0557 273.696 5.30149 229.432C-3.12825 218.676 -1.30427 203.112 9.34382 194.636C20.0412 186.16 35.5204 187.994 43.9501 198.701C87.3805 254.018 167.488 263.485 222.503 219.767C277.518 176.098 286.934 95.5504 243.454 40.233C235.024 29.4768 236.848 13.9126 247.496 5.43657C258.194 -3.03948 273.673 -1.20548 282.102 9.50111C342.392 86.2813 329.329 198.007 253.017 258.677C220.728 284.353 182.129 296.795 143.875 296.795H143.924Z" fill="#1D1D1F"/>
</svg>
