<svg width="156" height="36" viewBox="0 0 156 36" fill="none" xmlns="http://www.w3.org/2000/svg">
<g clip-path="url(#clip0_1166_859)">
<path d="M56.5463 10.9259C57.6431 11.5928 58.4964 12.515 59.1025 13.6927C59.7086 14.8722 60.0126 16.2133 60.0126 17.7217C60.0126 18.0303 59.9155 18.2765 59.7233 18.4602C59.531 18.644 59.2801 18.7358 58.9725 18.7358H47.3046C47.4584 20.3195 48.0737 21.6055 49.1541 22.5903C50.2326 23.575 51.5803 24.0674 53.1972 24.0674C53.8893 24.0674 54.5888 23.9461 55.2901 23.7055C55.9933 23.4648 56.5554 23.1598 56.9802 22.7924C57.2311 22.5995 57.4893 22.5021 57.7603 22.5021C57.9727 22.5021 58.1833 22.5792 58.3957 22.7336C58.6466 22.9651 58.7711 23.2259 58.7711 23.5162C58.7711 23.7679 58.6649 23.9902 58.4525 24.1831C57.8171 24.7233 57.0077 25.1734 56.0262 25.5298C55.0448 25.8881 54.0999 26.0663 53.1953 26.0663C51.6554 26.0663 50.2784 25.7227 49.0643 25.0374C47.8503 24.3521 46.9018 23.395 46.2188 22.1677C45.5358 20.9405 45.1934 19.5552 45.1934 18.0101C45.1934 16.465 45.5156 15.0504 46.1602 13.8231C46.8047 12.5959 47.7002 11.6405 48.8464 10.9534C49.9927 10.2681 51.2965 9.92459 52.7595 9.92459C54.2226 9.92459 55.4458 10.2571 56.5426 10.924L56.5463 10.9259ZM49.1229 13.2867C48.1598 14.1943 47.572 15.3921 47.3614 16.8802H57.9324C57.7786 15.3921 57.2384 14.1961 56.3155 13.2867C55.3908 12.3791 54.2079 11.9253 52.7632 11.9253C51.3184 11.9253 50.0861 12.3791 49.1248 13.2867H49.1229Z" fill="black"/>
<path d="M99.138 11.172V17.9826C99.138 19.4891 98.7864 20.8615 98.0833 22.0979C97.3801 23.3343 96.4169 24.3044 95.1956 25.0099C93.9724 25.7153 92.6101 26.0681 91.1085 26.0681C89.607 26.0681 88.2447 25.7153 87.0215 25.0099C85.7983 24.3044 84.8351 23.3343 84.1338 22.0979C83.4307 20.8615 83.0791 19.4891 83.0791 17.9826C83.0791 16.4761 83.4215 15.1092 84.1045 13.8819C84.7875 12.6547 85.7214 11.6901 86.9061 10.9847C88.0909 10.2792 89.4148 9.92642 90.8778 9.92642C92.1285 9.92642 93.2748 10.1928 94.3148 10.7238C95.3549 11.2547 96.2119 11.9841 96.8857 12.9119V4.42032C96.8857 4.09146 96.9919 3.82139 97.2043 3.60828C97.4167 3.39516 97.6859 3.2886 98.0137 3.2886C98.3414 3.2886 98.6051 3.39516 98.8084 3.60828C99.0098 3.82139 99.1123 4.09146 99.1123 4.42032V10.9112C99.1307 10.97 99.1416 11.0563 99.1416 11.172H99.138ZM94.0841 23.2425C94.9704 22.7115 95.668 21.9877 96.1789 21.0691C96.6879 20.1523 96.9443 19.1235 96.9443 17.9826C96.9443 17.6537 96.9352 17.413 96.915 17.2587C96.8949 17.2201 96.8857 17.1724 96.8857 17.1136C96.6934 15.6071 96.0617 14.3706 94.9942 13.4042C93.9248 12.4379 92.6302 11.9547 91.1104 11.9547C90.0135 11.9547 89.0156 12.2156 88.122 12.7373C87.2266 13.2591 86.5234 13.9793 86.0126 14.8961C85.5017 15.8147 85.2471 16.8435 85.2471 17.9826C85.2471 19.1216 85.5017 20.1523 86.0126 21.0691C86.5234 21.9877 87.2266 22.7115 88.122 23.2425C89.0174 23.7734 90.0135 24.0398 91.1104 24.0398C92.2072 24.0398 93.1997 23.7753 94.0859 23.2425H94.0841Z" fill="black"/>
<path d="M114.301 10.9259C115.398 11.5928 116.251 12.515 116.857 13.6927C117.463 14.8722 117.767 16.2133 117.767 17.7217C117.767 18.0303 117.67 18.2765 117.478 18.4602C117.286 18.644 117.035 18.7358 116.727 18.7358H105.06C105.213 20.3195 105.829 21.6055 106.909 22.5903C107.987 23.575 109.335 24.0674 110.952 24.0674C111.644 24.0674 112.344 23.9461 113.045 23.7055C113.748 23.4648 114.31 23.1598 114.735 22.7924C114.986 22.5995 115.244 22.5021 115.515 22.5021C115.728 22.5021 115.938 22.5792 116.151 22.7336C116.401 22.9651 116.526 23.2259 116.526 23.5162C116.526 23.7679 116.42 23.9902 116.207 24.1831C115.572 24.7233 114.763 25.1734 113.781 25.5298C112.8 25.8881 111.855 26.0663 110.95 26.0663C109.41 26.0663 108.033 25.7227 106.819 25.0374C105.605 24.3521 104.657 23.395 103.974 22.1677C103.291 20.9405 102.948 19.5552 102.948 18.0101C102.948 16.465 103.271 15.0504 103.915 13.8231C104.56 12.5959 105.455 11.6405 106.601 10.9534C107.748 10.2681 109.051 9.92459 110.514 9.92459C111.977 9.92459 113.201 10.2571 114.298 10.924L114.301 10.9259ZM106.878 13.2867C105.915 14.1943 105.327 15.3921 105.116 16.8802H115.687C115.533 15.3921 114.993 14.1961 114.07 13.2867C113.146 12.3791 111.963 11.9253 110.518 11.9253C109.073 11.9253 107.841 12.3791 106.88 13.2867H106.878Z" fill="black"/>
<path d="M133.512 10.9828C134.735 11.6883 135.696 12.6583 136.399 13.8948C137.103 15.1312 137.454 16.5036 137.454 18.0101V24.9658C137.454 25.2744 137.348 25.5353 137.136 25.7484C136.923 25.9615 136.654 26.0681 136.326 26.0681C135.998 26.0681 135.729 25.967 135.517 25.7631C135.304 25.561 135.198 25.2946 135.198 24.9658V23.0826C134.524 24.0104 133.667 24.7398 132.627 25.2707C131.587 25.8017 130.441 26.0681 129.19 26.0681C127.727 26.0681 126.403 25.7153 125.219 25.0099C124.034 24.3044 123.1 23.3398 122.417 22.1126C121.734 20.8853 121.392 19.5185 121.392 18.012C121.392 16.5054 121.743 15.1331 122.446 13.8966C123.149 12.6602 124.111 11.6901 125.334 10.9847C126.557 10.2792 127.92 9.92642 129.421 9.92642C130.923 9.92642 132.285 10.2792 133.508 10.9847L133.512 10.9828ZM132.4 23.2553C133.287 22.7336 133.984 22.0134 134.495 21.0966C135.004 20.1799 135.26 19.151 135.26 18.0101C135.26 16.8692 135.006 15.8422 134.495 14.9236C133.984 14.0069 133.287 13.2812 132.4 12.7502C131.514 12.2193 130.523 11.9529 129.425 11.9529C128.326 11.9529 127.33 12.2193 126.436 12.7502C125.541 13.2812 124.838 14.0069 124.327 14.9236C123.816 15.8422 123.561 16.8711 123.561 18.0101C123.561 19.1492 123.816 20.1799 124.327 21.0966C124.838 22.0152 125.541 22.7336 126.436 23.2553C127.332 23.7771 128.328 24.038 129.425 24.038C130.522 24.038 131.514 23.7771 132.4 23.2553Z" fill="black"/>
<path d="M152.518 10.766C153.606 11.3448 154.458 12.1917 155.075 13.3014C155.69 14.4129 155.999 15.7412 155.999 17.2863V24.9658C155.999 25.2744 155.893 25.5353 155.681 25.7484C155.468 25.9615 155.208 26.0681 154.901 26.0681C154.573 26.0681 154.304 25.9615 154.091 25.7484C153.879 25.5353 153.773 25.2744 153.773 24.9658V17.2863C153.773 15.5666 153.297 14.2586 152.343 13.3602C151.389 12.4618 150.142 12.0135 148.602 12.0135C147.659 12.0135 146.805 12.1972 146.045 12.5647C145.286 12.9321 144.683 13.4392 144.24 14.0859C143.797 14.7326 143.575 15.4527 143.575 16.2446V24.9676C143.575 25.2965 143.475 25.561 143.271 25.765C143.07 25.9671 142.804 26.0699 142.477 26.0699C142.149 26.0699 141.88 25.9689 141.667 25.765C141.455 25.5629 141.349 25.2965 141.349 24.9676V11.1996C141.349 10.8708 141.455 10.6007 141.667 10.3876C141.88 10.1745 142.149 10.0679 142.477 10.0679C142.804 10.0679 143.068 10.1745 143.271 10.3876C143.473 10.6007 143.575 10.8708 143.575 11.1996V12.1844C144.211 11.4697 144.98 10.9093 145.886 10.5033C146.791 10.0973 147.772 9.8952 148.832 9.8952C150.198 9.8952 151.427 10.1855 152.515 10.7642L152.518 10.766Z" fill="black"/>
<path d="M79.8286 18.0377C79.8268 19.5387 79.4843 20.9 78.8032 22.1255C78.1183 23.3509 77.1845 24.3172 76.0016 25.0227C74.8168 25.7282 73.4929 26.081 72.0299 26.081H71.5684C70.1054 26.081 68.7815 25.7282 67.5967 25.0227C66.4138 24.3172 65.48 23.3527 64.7951 22.1255C64.3026 21.2418 63.9876 20.2846 63.8503 19.2557C63.7642 18.6091 64.2769 18.0377 64.927 18.0377C65.4671 18.0377 65.9268 18.4382 66 18.9747C66.1044 19.7426 66.3388 20.4554 66.7013 21.1095C67.2104 22.0281 67.9135 22.7483 68.8108 23.2682C69.7062 23.7881 70.7005 24.0508 71.7991 24.0508C72.8978 24.0508 73.8921 23.79 74.7875 23.2682C75.6848 22.7483 76.3879 22.0263 76.897 21.1095C77.4042 20.1964 77.6605 19.1694 77.6624 18.0377V11.0122C77.6624 10.4114 78.1476 9.92459 78.7464 9.92459C79.3452 9.92459 79.8304 10.4114 79.8304 11.0122V18.0377H79.8286Z" fill="black"/>
<path d="M78.6695 9.92459C78.1293 9.92459 77.6697 10.3251 77.5983 10.8616C77.4939 11.6295 77.2595 12.3424 76.897 12.9964C76.3879 13.915 75.6848 14.6352 74.7875 15.1551C73.8921 15.675 72.8978 15.9378 71.7991 15.9378C70.7005 15.9378 69.7062 15.6769 68.8108 15.1551C67.9135 14.6352 67.2104 13.9132 66.7013 12.9964C66.3369 12.3424 66.1025 11.6295 66 10.8616C65.9268 10.3233 65.469 9.92459 64.927 9.92459C64.2769 9.92459 63.7642 10.496 63.8503 11.1427C63.9876 12.1715 64.3026 13.1268 64.7951 14.0124C65.48 15.2378 66.4138 16.2042 67.5967 16.9096C68.7815 17.6151 70.1054 17.9679 71.5684 17.9679H72.0299C73.4929 17.9679 74.8168 17.6151 76.0016 16.9096C77.1845 16.2042 78.1183 15.2396 78.8032 14.0124C79.2957 13.1287 79.6107 12.1715 79.748 11.1427C79.8341 10.496 79.3214 9.92459 78.6713 9.92459H78.6695Z" fill="black"/>
<path d="M33.665 9.32932C34.4799 8.34274 34.9706 7.07691 34.9706 5.69533C34.9706 2.55004 32.429 0 29.2942 0C27.7615 0 26.3699 0.609952 25.3481 1.6002C23.0904 0.573207 20.5836 0 17.9413 0C8.0331 0 0 8.05797 0 18.0009C0 27.9439 8.0331 36 17.9413 36C27.8494 36 35.8807 27.942 35.8807 18.0009C35.8807 14.8575 35.0768 11.9014 33.665 9.32932ZM29.2942 2.38836C31.1106 2.38836 32.5902 3.87099 32.5902 5.69533C32.5902 6.21526 32.4693 6.70763 32.2533 7.14672C31.8925 7.88895 31.259 8.47686 30.4862 8.77816C30.1163 8.9233 29.7135 9.0023 29.2942 9.0023C27.4759 9.0023 25.9982 7.51784 25.9982 5.69533C25.9982 5.3628 26.0476 5.04129 26.1392 4.73815C26.3809 3.93529 26.9192 3.26104 27.6279 2.84583C28.1168 2.55371 28.6862 2.38836 29.2942 2.38836ZM17.9413 33.6116C9.36066 33.6116 2.38045 26.6082 2.38045 18.0009C2.38045 9.39362 9.36066 2.38836 17.9413 2.38836C20.091 2.38836 22.14 2.82746 24.0041 3.62296C23.7551 4.26599 23.6177 4.96412 23.6177 5.69533C23.6177 8.84062 26.1593 11.3907 29.2942 11.3907C30.1768 11.3907 31.0136 11.1886 31.7589 10.8266C32.8703 12.9762 33.5002 15.416 33.5002 18.0009C33.5002 26.6082 26.52 33.6116 17.9413 33.6116Z" fill="black"/>
<path d="M17.9409 9.9209C13.5005 9.9209 9.8877 13.5457 9.8877 18.0009C9.8877 22.4561 13.5005 26.0809 17.9409 26.0809C22.3814 26.0809 25.9942 22.4561 25.9942 18.0009C25.9942 13.5457 22.3814 9.9209 17.9409 9.9209Z" fill="black"/>
</g>
<defs>
<clipPath id="clip0_1166_859">
<rect width="156" height="36" fill="white"/>
</clipPath>
</defs>
</svg>
